<svg data-name="Logo Catho" xmlns="http://www.w3.org/2000/svg" xmlns:xlink="http://www.w3.org/1999/xlink" viewBox="0 0 240 41" fill="none" class="LogoCatho__StyledSvg-sc-pi2lh0-0 hEaAlB"><path d="M14.9052 11.3911L0 25.7462L14.9052 40.1013H30.7337L15.8285 25.7462L30.7337 11.3911H14.9052ZM225.095 11.3911H209.2L224.106 25.7462L209.2 40.1013H225.095L240 25.7462L225.095 11.3911Z" fill="#FF1478"></path><path d="M61.4016 29.4943C60.0166 31.8444 57.4444 33.3689 54.4766 33.3689C50.1238 33.3689 46.5623 29.9389 46.5623 25.6832C46.5623 21.4275 50.1238 17.9975 54.4766 17.9975C57.4444 17.9975 60.0166 19.5855 61.4016 21.8721L68.5244 18.8868C65.8204 14.377 60.6102 11.3281 54.5425 11.3281C45.7709 11.3281 38.6481 17.7434 38.6481 25.6832C38.6481 33.6229 45.7709 40.0383 54.5425 40.0383C60.6102 40.0383 65.8863 36.9894 68.5244 32.4796L61.4016 29.4943Z" fill="#0023A0"></path><path d="M151.756 11.455C148.722 11.455 145.952 12.5983 143.842 14.3768V1.86377H135.862V40.1651H143.842V24.7938C143.842 21.6179 146.48 19.0771 149.778 19.0771C153.075 19.0771 155.713 21.6179 155.713 24.7938V40.1651H163.628V22.9517C163.693 16.5999 158.351 11.455 151.756 11.455Z" fill="#0023A0"></path><path d="M185.458 11.3911C176.686 11.3911 169.563 17.8064 169.563 25.7462C169.563 33.6859 176.686 40.1013 185.458 40.1013C194.229 40.1013 201.352 33.6859 201.352 25.7462C201.352 17.8064 194.229 11.3911 185.458 11.3911ZM185.458 33.3683C181.105 33.3683 177.543 29.9384 177.543 25.7462C177.543 21.554 181.105 18.124 185.458 18.124C189.811 18.124 193.372 21.554 193.372 25.7462C193.372 29.9384 189.877 33.3683 185.458 33.3683Z" fill="#0023A0"></path><path d="M96.1584 11.3911V14.1859C93.6523 12.4074 90.6185 11.3911 87.3208 11.3911C79.0768 11.3911 72.4156 17.8064 72.4156 25.7462C72.4156 33.6859 79.0768 40.1013 87.3208 40.1013C90.6185 40.1013 93.7182 39.0214 96.1584 37.3065V40.1013H104.139V11.3911H96.1584ZM88.2442 33.3683C83.8913 33.3683 80.3299 29.9384 80.3299 25.7462C80.3299 21.554 83.8913 18.124 88.2442 18.124C92.597 18.124 96.1584 21.554 96.1584 25.7462C96.2244 29.9384 92.663 33.3683 88.2442 33.3683Z" fill="#0023A0"></path><path d="M127.881 32.3524C127.024 32.9875 126.035 33.3687 124.913 33.3687C122.209 33.3687 119.967 31.209 119.967 28.6048V19.0136H127.881V12.3442H119.967V5.6748H112.053V28.6048C112.053 34.9566 117.395 40.1016 123.99 40.1016C126.166 40.1016 128.211 39.4029 129.926 38.196L127.881 32.3524Z" fill="#0023A0"></path></svg>